<svg xmlns="http://www.w3.org/2000/svg"><symbol id="mars-1" viewBox="0 0 252 252"><path d="M96.98 146.66H83.87l-17.49 20.67 2.78 3.98 33.59-17.69-5.77-6.96zm-24.24-14.3h108.7v10.33H72.74zm94.99-3.98a48 48 0 0 0 2.38-15.1 43 43 0 0 0-86 0c0 5.17.4 10.53 2.38 15.1zm-81.08 38.35h27.03l-8.15-9.93-18.88 9.93zm68.36-20.07l-5.96 6.96 33.78 17.69 2.78-3.78-17.48-20.87h-13.12z"/><path d="M126 5L21.21 65.5v121L126 247l104.79-60.5v-121zm63.59 163.52l-4.59 6.56a2.11 2.11 0 0 1-2.58.6l-9.54-5h-94l-9.54 5a2.17 2.17 0 0 1-2.58-.6l-4.57-6.56a2.08 2.08 0 0 1 .2-2.38l16.51-19.48h-8.15a1.88 1.88 0 0 1-2-2v-14.29a1.88 1.88 0 0 1 2-2h11.53a55.51 55.51 0 0 1-2.19-15.1 47 47 0 0 1 94 0 48.77 48.77 0 0 1-2.19 15.1h11.53a1.88 1.88 0 0 1 2 2v14.31a1.88 1.88 0 0 1-2 2h-10.14l16.3 19.47a2.09 2.09 0 0 1 0 2.37z"/><path d="M138.32 166.73h27.02l-18.87-9.93-8.15 9.93zm-36.17-20.07l16.69 20.07h14.31l16.69-20.07h-47.69z"/></symbol><symbol id="mars-2" viewBox="0 0 252 252"><path d="M95.79 154.21h19.87v12.52H95.79zm23.85 0h12.72v12.52h-12.72zm16.69 0h19.87v12.52h-19.87zM126 71.35c-23.25 0-42.73 14.11-43.72 39.74h87.44c-1-25.63-20.47-39.74-43.72-39.74zm-46.9 82.86h12.72v12.52H79.1zm-11.93-3.97h117.65v-35.17H67.17zM125 136.73h48.49a2 2 0 0 1 0 4H125a2 2 0 1 1 0-4z"/><path d="M126 5L21.21 65.5v121L126 247l104.79-60.5v-121zm62.79 147.23a1.88 1.88 0 0 1-2 2h-9.93v12.52h9.93a2 2 0 1 1 0 4H65.19a2 2 0 0 1 0-4h9.94v-12.54h-9.94a1.88 1.88 0 0 1-2-2v-39.13a1.88 1.88 0 0 1 2-2H78.3c1-28.22 22.06-43.72 47.69-43.72s46.7 15.5 47.69 43.72h13.12a1.88 1.88 0 0 1 2 2z"/><path d="M160.18 154.21h12.72v12.52h-12.72z"/></symbol><symbol id="mars-3" viewBox="0 0 252 252"><path d="M70.55 144.68h53.46v22.06H70.55zm53.46-18.88V85.66L95.39 125.8h28.62zM128 81.48v44.32h54.85A59.07 59.07 0 0 0 128 81.48zm-.02 63.2h8.94v22.06h-8.94zm-5.98-63c-25.44 1.59-46.7 20.07-52.86 44.12h21.29z"/><path d="M126 5L21.21 65.5v121L126 247l104.79-60.5v-121zm85.65 139.68h-26.24v24a1.88 1.88 0 0 1-2 2H68.56a1.88 1.88 0 0 1-2-2v-24H40.35a2 2 0 0 1 0-4h14.9v-12.9a1.88 1.88 0 0 1 2-2H65a63 63 0 0 1 60.8-48.27c.2-.2.4-.2.8 0 29.41.2 53.85 20.87 60.41 48.29h7.75a1.88 1.88 0 0 1 2 2v12.9h14.9a2 2 0 1 1 0 4z"/><path d="M59.23 129.77h133.54v10.93H59.23zm81.67 14.91h40.54v22.06H140.9z"/></symbol></svg>